<svg xmlns="http://www.w3.org/2000/svg" width="17.584" height="22.666" viewBox="0 0 17.584 22.666"><defs><style>.a{fill:#707070;}</style></defs><g transform="translate(-51.493)"><g transform="translate(51.493)"><g transform="translate(0)"><path class="a" d="M175.207,404.514c0,.006,0,.012,0,.018a2.687,2.687,0,1,0,5.375,0c0-.006,0-.012,0-.018Z" transform="translate(-169.102 -384.553)"/><path class="a" d="M68.866,16.6l-2.419-3.553V8.616a6.163,6.163,0,0,0-4.953-6.043V1.208a1.208,1.208,0,0,0-2.416,0V2.573a6.163,6.163,0,0,0-4.953,6.043v4.433L51.705,16.6a1.222,1.222,0,0,0,1.01,1.909h15.14a1.222,1.222,0,0,0,1.01-1.909Z" transform="translate(-51.493)"/></g></g></g></svg>