<svg xmlns="http://www.w3.org/2000/svg" width="23.999" height="26.666" viewBox="0 0 23.999 26.666"><defs><style>.a{opacity:0.699;}.b{fill:#707070;}</style></defs><g class="a" transform="translate(-21.333)"><g transform="translate(21.333)"><path class="b" d="M42.665,2.667H41.332V0H38.666V2.667H28V0H25.333V2.667H24a2.654,2.654,0,0,0-2.653,2.667L21.333,24A2.666,2.666,0,0,0,24,26.666H42.665A2.666,2.666,0,0,0,45.332,24V5.333A2.666,2.666,0,0,0,42.665,2.667Zm0,21.332H24V9.333H42.665Z" transform="translate(-21.333)"/><path class="b" d="M127.572,193.413,126.159,192l-6.506,6.506-2.827-2.827-1.413,1.413,4.24,4.24Z" transform="translate(-109.533 -180.001)"/></g></g></svg>