<svg xmlns="http://www.w3.org/2000/svg" width="23.633" height="26.889" viewBox="0 0 23.633 26.889"><defs><style>.a{opacity:0.699;}.b{fill:#707070;}</style></defs><g class="a" transform="translate(-31)"><g transform="translate(34.151 11.029)"><path class="b" d="M93.363,210A2.366,2.366,0,0,0,91,212.363v6.407a2.363,2.363,0,0,0,4.727,0v-6.407A2.366,2.366,0,0,0,93.363,210Z" transform="translate(-91 -210)"/></g><g transform="translate(31 12.729)"><path class="b" d="M32.576,243.029a3.908,3.908,0,0,1,.067-.664A2.359,2.359,0,0,0,31,244.605v3.256a2.359,2.359,0,0,0,1.643,2.239,3.908,3.908,0,0,1-.067-.663Z" transform="translate(-31 -242.366)"/></g><g transform="translate(40.453 11.029)"><path class="b" d="M219.666,210a2.366,2.366,0,0,0-2.363,2.363v6.407a2.366,2.366,0,0,0,2.363,2.363,2.332,2.332,0,0,0,.677-.111,2.359,2.359,0,0,1-2.253,1.686h-2.508a2.363,2.363,0,1,0,0,1.576h2.508a3.943,3.943,0,0,0,3.939-3.939v-7.983A2.366,2.366,0,0,0,219.666,210Z" transform="translate(-211 -210)"/></g><g transform="translate(52.991 12.729)"><path class="b" d="M449.722,242.366a3.907,3.907,0,0,1,.067.664v6.407a3.907,3.907,0,0,1-.067.663,2.359,2.359,0,0,0,1.643-2.239v-3.256A2.359,2.359,0,0,0,449.722,242.366Z" transform="translate(-449.722 -242.366)"/></g><g transform="translate(31)"><path class="b" d="M42.817,0A11.83,11.83,0,0,0,31,11.817v.02a3.9,3.9,0,0,1,1.612-.732,10.229,10.229,0,0,1,20.41,0,3.9,3.9,0,0,1,1.612.732v-.02A11.83,11.83,0,0,0,42.817,0Z" transform="translate(-31)"/></g></g></svg>