<svg xmlns="http://www.w3.org/2000/svg" width="22.648" height="27.544" viewBox="0 0 22.648 27.544"><defs><style>.a{opacity:0.699;}.b{fill:#707070;}</style></defs><g class="a" transform="translate(-45.507)"><g transform="translate(45.507)"><path class="b" d="M62.453,9.2a.807.807,0,0,0,.807-.807V2.421A2.424,2.424,0,0,0,60.839,0H47.928a2.424,2.424,0,0,0-2.421,2.421v22.7a2.424,2.424,0,0,0,2.421,2.421H60.839a2.424,2.424,0,0,0,2.421-2.421V19.152a.807.807,0,1,0-1.614,0v5.971a.808.808,0,0,1-.807.807H47.928a.808.808,0,0,1-.807-.807V2.421a.808.808,0,0,1,.807-.807H60.839a.808.808,0,0,1,.807.807V8.392A.807.807,0,0,0,62.453,9.2Z" transform="translate(-45.507)"/></g><g transform="translate(51.559 10.635)"><path class="b" d="M174.262,200.174l-3.3-2.329a.807.807,0,0,0-.93,1.319l1.224.863H158.815a.807.807,0,0,0,0,1.614h12.437l-1.224.863a.807.807,0,0,0,.93,1.319l3.3-2.329A.808.808,0,0,0,174.262,200.174Z" transform="translate(-158.008 -197.697)"/></g></g></svg>