<svg xmlns="http://www.w3.org/2000/svg" width="26.241" height="26.947" viewBox="0 0 26.241 26.947"><defs><style>.a{fill:#949494;}</style></defs><g transform="translate(-6.71)"><g transform="translate(6.71)"><path class="a" d="M32.5,16.427,30.02,14.49a9.753,9.753,0,0,0,.058-1.017,9.457,9.457,0,0,0-.058-1.017L32.5,10.517a1.215,1.215,0,0,0,.293-1.547L30.217,4.514a1.194,1.194,0,0,0-1.49-.536L25.8,5.151a10.02,10.02,0,0,0-1.755-1.018l-.445-3.1A1.192,1.192,0,0,0,22.414,0H17.249a1.189,1.189,0,0,0-1.188,1.024l-.446,3.111a10.33,10.33,0,0,0-1.752,1.018L10.934,3.977A1.218,1.218,0,0,0,9.455,4.5L6.876,8.966a1.207,1.207,0,0,0,.292,1.555l2.477,1.937a8.884,8.884,0,0,0,0,2.033L7.165,16.429a1.215,1.215,0,0,0-.292,1.547l2.576,4.456a1.192,1.192,0,0,0,1.49.536l2.923-1.173a10.109,10.109,0,0,0,1.754,1.018l.445,3.1a1.192,1.192,0,0,0,1.19,1.035h5.165A1.19,1.19,0,0,0,23.6,25.923l.446-3.11a10.379,10.379,0,0,0,1.752-1.02l2.931,1.177a1.206,1.206,0,0,0,.44.083,1.185,1.185,0,0,0,1.039-.609l2.587-4.48A1.212,1.212,0,0,0,32.5,16.427ZM19.832,17.965a4.491,4.491,0,1,1,4.491-4.491A4.5,4.5,0,0,1,19.832,17.965Z" transform="translate(-6.71)"/></g></g></svg>